<?xml version="1.0" encoding="UTF-8" standalone="no"?><svg xmlns="http://www.w3.org/2000/svg" xmlns:xlink="http://www.w3.org/1999/xlink" contentScriptType="application/ecmascript" contentStyleType="text/css" height="461px" preserveAspectRatio="none" style="width:290px;height:461px;" version="1.1" viewBox="0 0 290 461" width="290px" zoomAndPan="magnify"><defs><filter height="300%" id="fj00a4t5g3ylr" width="300%" x="-1" y="-1"><feGaussianBlur result="blurOut" stdDeviation="2.0"/><feColorMatrix in="blurOut" result="blurOut2" type="matrix" values="0 0 0 0 0 0 0 0 0 0 0 0 0 0 0 0 0 0 .4 0"/><feOffset dx="4.0" dy="4.0" in="blurOut2" result="blurOut3"/><feBlend in="SourceGraphic" in2="blurOut3" mode="normal"/></filter></defs><g><!--MD5=[494c489cc4328319247ec2e1625e02a3]
entity Student--><ellipse cx="33.5" cy="18" fill="#FEFECE" filter="url(#fj00a4t5g3ylr)" rx="8" ry="8" style="stroke: #A80036; stroke-width: 2.0;"/><path d="M33.5,26 L33.5,53 M20.5,34 L46.5,34 M33.5,53 L20.5,68 M33.5,53 L46.5,68 " fill="none" filter="url(#fj00a4t5g3ylr)" style="stroke: #A80036; stroke-width: 2.0;"/><text fill="#000000" font-family="sans-serif" font-size="14" lengthAdjust="spacingAndGlyphs" textLength="55" x="6" y="87.9951">Student</text><ellipse cx="200.6838" cy="235.5236" fill="#FEFECE" filter="url(#fj00a4t5g3ylr)" rx="41.1838" ry="14.5236" style="stroke: #A80036; stroke-width: 1.5;"/><text fill="#000000" font-family="sans-serif" font-size="14" lengthAdjust="spacingAndGlyphs" textLength="54" x="173.6838" y="240.1721">1. Login</text><ellipse cx="200.7362" cy="30.3472" fill="#FEFECE" filter="url(#fj00a4t5g3ylr)" rx="62.2362" ry="14.8472" style="stroke: #A80036; stroke-width: 1.5;"/><text fill="#000000" font-family="sans-serif" font-size="14" lengthAdjust="spacingAndGlyphs" textLength="86" x="157.7362" y="34.9957">2. FeedBack</text><ellipse cx="200.3859" cy="301.4772" fill="#FEFECE" filter="url(#fj00a4t5g3ylr)" rx="67.8859" ry="15.9772" style="stroke: #A80036; stroke-width: 1.5;"/><text fill="#000000" font-family="sans-serif" font-size="14" lengthAdjust="spacingAndGlyphs" textLength="101" x="149.8859" y="306.1256">3. Student Info</text><ellipse cx="200.4543" cy="97.2909" fill="#FEFECE" filter="url(#fj00a4t5g3ylr)" rx="69.4543" ry="16.2909" style="stroke: #A80036; stroke-width: 1.5;"/><text fill="#000000" font-family="sans-serif" font-size="14" lengthAdjust="spacingAndGlyphs" textLength="105" x="147.9543" y="101.9393">4. Performance</text><ellipse cx="200.2901" cy="167.258" fill="#FEFECE" filter="url(#fj00a4t5g3ylr)" rx="79.2901" ry="18.258" style="stroke: #A80036; stroke-width: 1.5;"/><text fill="#000000" font-family="sans-serif" font-size="14" lengthAdjust="spacingAndGlyphs" textLength="129" x="135.7901" y="171.9065">5. Cource Register</text><!--MD5=[75bcab72e22e3bde62d8cef4f1a817de]
entity Staff--><ellipse cx="33.5" cy="372" fill="#FEFECE" filter="url(#fj00a4t5g3ylr)" rx="8" ry="8" style="stroke: #A80036; stroke-width: 2.0;"/><path d="M33.5,380 L33.5,407 M20.5,388 L46.5,388 M33.5,407 L20.5,422 M33.5,407 L46.5,422 " fill="none" filter="url(#fj00a4t5g3ylr)" style="stroke: #A80036; stroke-width: 2.0;"/><text fill="#000000" font-family="sans-serif" font-size="14" lengthAdjust="spacingAndGlyphs" textLength="30" x="18.5" y="441.9951">Staff</text><ellipse cx="200.4465" cy="369.6893" fill="#FEFECE" filter="url(#fj00a4t5g3ylr)" rx="71.4465" ry="16.6893" style="stroke: #A80036; stroke-width: 1.5;"/><text fill="#000000" font-family="sans-serif" font-size="14" lengthAdjust="spacingAndGlyphs" textLength="110" x="145.4465" y="374.3377">6. Insert Record</text><ellipse cx="200.4472" cy="435.5236" fill="#FEFECE" filter="url(#fj00a4t5g3ylr)" rx="57.4472" ry="14.5236" style="stroke: #A80036; stroke-width: 1.5;"/><text fill="#000000" font-family="sans-serif" font-size="14" lengthAdjust="spacingAndGlyphs" textLength="77" x="161.9472" y="440.1721">7. Own Info</text><!--MD5=[3a4e06195bfd3e65563855131230b9db]
entity Director--><ellipse cx="33.5" cy="254" fill="#FEFECE" filter="url(#fj00a4t5g3ylr)" rx="8" ry="8" style="stroke: #A80036; stroke-width: 2.0;"/><path d="M33.5,262 L33.5,289 M20.5,270 L46.5,270 M33.5,289 L20.5,304 M33.5,289 L46.5,304 " fill="none" filter="url(#fj00a4t5g3ylr)" style="stroke: #A80036; stroke-width: 2.0;"/><text fill="#000000" font-family="sans-serif" font-size="14" lengthAdjust="spacingAndGlyphs" textLength="55" x="6" y="323.9951">Director</text><!--MD5=[97ab183161fd5d1db7fba7485cf76add]
entity Admin--><ellipse cx="33.5" cy="136" fill="#FEFECE" filter="url(#fj00a4t5g3ylr)" rx="8" ry="8" style="stroke: #A80036; stroke-width: 2.0;"/><path d="M33.5,144 L33.5,171 M20.5,152 L46.5,152 M33.5,171 L20.5,186 M33.5,171 L46.5,186 " fill="none" filter="url(#fj00a4t5g3ylr)" style="stroke: #A80036; stroke-width: 2.0;"/><text fill="#000000" font-family="sans-serif" font-size="14" lengthAdjust="spacingAndGlyphs" textLength="43" x="12" y="205.9951">Admin</text><!--MD5=[b392305a7b09802d183f1d1f71ac88fa]
link Student to 1. Login--><path d="M53.189,91.0232 C72.7449,130.8493 102.4213,187.2582 121,203.5 C132.4726,213.5296 147.4906,220.656 161.3807,225.5968 " fill="none" id="Student-&gt;1. Login" style="stroke: #A80036; stroke-width: 1.0;"/><polygon fill="#A80036" points="166.4384,227.3196,159.2089,220.6312,161.7055,225.7073,156.6293,228.2039,166.4384,227.3196" style="stroke: #A80036; stroke-width: 1.0;"/><!--MD5=[60d0b1da418c1b8be6cfef7921b3bc18]
link Student to 2. FeedBack--><path d="M61.0767,46.3625 C82.1817,43.9614 112.1081,40.5566 138.8276,37.5166 " fill="none" id="Student-&gt;2. FeedBack" style="stroke: #A80036; stroke-width: 1.0;"/><polygon fill="#A80036" points="144.1251,36.9139,134.7306,33.957,139.1572,37.4792,135.635,41.9058,144.1251,36.9139" style="stroke: #A80036; stroke-width: 1.0;"/><!--MD5=[04d373a77e93c45cd82a690aea72c4a0]
link Student to 3. Student Info--><path d="M53.4223,91.2264 C56.0394,96.9988 58.632,102.8756 61,108.5 C90.3087,178.1124 68.7603,212.9481 121,267.5 C129.1761,276.038 139.845,282.5405 150.6992,287.4518 " fill="none" id="Student-&gt;3. Student Info" style="stroke: #A80036; stroke-width: 1.0;"/><polygon fill="#A80036" points="155.3557,289.4606,148.6763,282.2228,150.7647,287.4801,145.5074,289.5685,155.3557,289.4606" style="stroke: #A80036; stroke-width: 1.0;"/><!--MD5=[d7a761f8729caccb1c3463386cf4148c]
link Student to 4. Performance--><path d="M61.0767,57.4262 C85.5102,64.4491 121.7673,74.8702 151.1833,83.3251 " fill="none" id="Student-&gt;4. Performance" style="stroke: #A80036; stroke-width: 1.0;"/><polygon fill="#A80036" points="156.2163,84.7717,148.6716,78.4411,151.4109,83.3904,146.4615,86.1297,156.2163,84.7717" style="stroke: #A80036; stroke-width: 1.0;"/><!--MD5=[1100fa4fb5025e711d7fde7a381c741c]
link Student to 5. Cource Register--><path d="M61.0163,79.79 C77.31,96.5142 99.0163,116.8099 121,131.5 C131.141,138.2765 142.7653,144.3509 153.9372,149.4947 " fill="none" id="Student-&gt;5. Cource Register" style="stroke: #A80036; stroke-width: 1.0;"/><polygon fill="#A80036" points="158.6919,151.6416,152.1355,144.2922,154.1349,149.5839,148.8432,151.5833,158.6919,151.6416" style="stroke: #A80036; stroke-width: 1.0;"/><!--MD5=[7f30505138db0597b2abd10850b45ef8]
link Staff to 1. Login--><path d="M48.5073,369.1016 C63.1635,339.0112 88.0603,295.9413 121,268.5 C133.0692,258.4454 148.6309,251.084 162.7819,245.8993 " fill="none" id="Staff-&gt;1. Login" style="stroke: #A80036; stroke-width: 1.0;"/><polygon fill="#A80036" points="167.5198,244.2237,157.7011,243.4537,162.806,245.891,160.3687,250.9959,167.5198,244.2237" style="stroke: #A80036; stroke-width: 1.0;"/><!--MD5=[302a3ee92f00e9b818bf5779860e8507]
link Staff to 3. Student Info--><path d="M48.7468,389.6708 C65.5508,374.9184 93.815,351.5155 121,335.5 C132.7606,328.5715 146.1965,322.2753 158.6339,317.0365 " fill="none" id="Staff-&gt;3. Student Info" style="stroke: #A80036; stroke-width: 1.0;"/><polygon fill="#A80036" points="163.5279,315.0071,153.6821,314.7598,158.9093,316.9224,156.7466,322.1495,163.5279,315.0071" style="stroke: #A80036; stroke-width: 1.0;"/><!--MD5=[e6d4c4b887c93791a7d8682d72d4ba39]
link Staff to 6. Insert Record--><path d="M48.6147,400.4228 C69.497,396.1713 108.3568,388.2597 141.5411,381.5036 " fill="none" id="Staff-&gt;6. Insert Record" style="stroke: #A80036; stroke-width: 1.0;"/><polygon fill="#A80036" points="146.8147,380.43,137.1976,378.3061,141.9152,381.4276,138.7937,386.1452,146.8147,380.43" style="stroke: #A80036; stroke-width: 1.0;"/><!--MD5=[0602e0a7e0735036095d811421bf146e]
link Staff to 7. Own Info--><path d="M48.6147,406.3962 C71.19,410.722 114.7759,419.0738 149.4877,425.7252 " fill="none" id="Staff-&gt;7. Own Info" style="stroke: #A80036; stroke-width: 1.0;"/><polygon fill="#A80036" points="154.5411,426.6935,146.4547,421.0712,149.6304,425.7525,144.9491,428.9282,154.5411,426.6935" style="stroke: #A80036; stroke-width: 1.0;"/><!--MD5=[3b5cc8292545f0d32122cd68623fbb9c]
link Director to 1. Login--><path d="M61.0767,277.2435 C89.3046,268.792 133.3133,255.6158 164.3227,246.3315 " fill="none" id="Director-&gt;1. Login" style="stroke: #A80036; stroke-width: 1.0;"/><polygon fill="#A80036" points="169.1835,244.8762,159.4143,243.626,164.3936,246.3105,161.7092,251.2898,169.1835,244.8762" style="stroke: #A80036; stroke-width: 1.0;"/><!--MD5=[604554e6cc442708b0e0ef39e6b11514]
link Director to 2. FeedBack--><path d="M53.465,243.7915 C56.0755,238.0163 58.6549,232.134 61,226.5 C90.6656,155.2311 67.5371,119.1869 121,63.5 C129.5125,54.6334 140.7615,48.0579 152.11,43.2164 " fill="none" id="Director-&gt;2. FeedBack" style="stroke: #A80036; stroke-width: 1.0;"/><polygon fill="#A80036" points="156.972,41.246,147.1286,40.9192,152.3381,43.124,150.1333,48.3335,156.972,41.246" style="stroke: #A80036; stroke-width: 1.0;"/><!--MD5=[4cbb0e05c19498134118d5679d40b759]
link Director to 3. Student Info--><path d="M61.0767,288.1421 C80.4504,289.9982 107.2577,292.5666 132.1941,294.9557 " fill="none" id="Director-&gt;3. Student Info" style="stroke: #A80036; stroke-width: 1.0;"/><polygon fill="#A80036" points="137.4835,295.4625,128.9061,290.6222,132.5063,294.9855,128.143,298.5857,137.4835,295.4625" style="stroke: #A80036; stroke-width: 1.0;"/><!--MD5=[57e10a5d5bf64ba95ed4759daf47e141]
link Director to 4. Performance--><path d="M53.4458,243.6875 C73.0608,203.948 102.654,147.889 121,131.5 C129.9139,123.5369 140.9738,117.2382 151.9824,112.3388 " fill="none" id="Director-&gt;4. Performance" style="stroke: #A80036; stroke-width: 1.0;"/><polygon fill="#A80036" points="156.6908,110.324,146.8429,110.1874,152.094,112.2911,149.9903,117.5422,156.6908,110.324" style="stroke: #A80036; stroke-width: 1.0;"/><!--MD5=[4d89bdf9591140f619460fbb0d19a918]
link Director to 5. Cource Register--><path d="M61.0163,255.21 C77.31,238.4858 99.0163,218.1901 121,203.5 C131.141,196.7235 142.7653,190.6491 153.9372,185.5053 " fill="none" id="Director-&gt;5. Cource Register" style="stroke: #A80036; stroke-width: 1.0;"/><polygon fill="#A80036" points="158.6919,183.3584,148.8432,183.4167,154.1349,185.4161,152.1355,190.7078,158.6919,183.3584" style="stroke: #A80036; stroke-width: 1.0;"/><!--MD5=[12305d37d201f368674136dbecd31a0d]
link Director to 7. Own Info--><path d="M56.4474,327.2502 C71.9266,352.191 94.3576,382.9204 121,403.5 C131.6026,411.6899 144.5825,418.0774 156.9555,422.9173 " fill="none" id="Director-&gt;7. Own Info" style="stroke: #A80036; stroke-width: 1.0;"/><polygon fill="#A80036" points="161.8438,424.7635,154.8377,417.8415,157.1663,422.9968,152.011,425.3255,161.8438,424.7635" style="stroke: #A80036; stroke-width: 1.0;"/><!--MD5=[6f28a9e9230616ef7f0734e8be7ce40e]
link Admin to 1. Login--><path d="M55.0565,176.4226 C72.7556,183.7357 98.4822,194.336 121,203.5 C136.6002,209.8488 153.9491,216.84 168.4496,222.664 " fill="none" id="Admin-&gt;1. Login" style="stroke: #A80036; stroke-width: 1.0;"/><polygon fill="#A80036" points="173.2514,224.5918,166.3899,217.5265,168.6114,222.7288,163.4091,224.9504,173.2514,224.5918" style="stroke: #A80036; stroke-width: 1.0;"/><!--MD5=[5a6eee87e2572af9309d44036ed1e7a7]
link Admin to 2. FeedBack--><path d="M55.0463,134.3348 C71.0217,111.8813 94.5445,82.8865 121,63.5 C131.7478,55.6241 144.6529,49.2312 156.9088,44.2438 " fill="none" id="Admin-&gt;2. FeedBack" style="stroke: #A80036; stroke-width: 1.0;"/><polygon fill="#A80036" points="161.7486,42.3317,151.9084,41.9186,157.0984,44.169,154.848,49.3589,161.7486,42.3317" style="stroke: #A80036; stroke-width: 1.0;"/><!--MD5=[64a4a7c5bb21fe07f36543ab1a9d53e1]
link Admin to 3. Student Info--><path d="M55.0183,198.8006 C71.1477,220.3955 94.8665,248.5237 121,267.5 C131.5089,275.1308 143.9946,281.4871 155.9207,286.5589 " fill="none" id="Admin-&gt;3. Student Info" style="stroke: #A80036; stroke-width: 1.0;"/><polygon fill="#A80036" points="160.6346,288.5106,153.8495,281.3718,156.015,286.5978,150.789,288.7632,160.6346,288.5106" style="stroke: #A80036; stroke-width: 1.0;"/><!--MD5=[2734289b0bde5c3a9f134fd226662ee5]
link Admin to 4. Performance--><path d="M55.3323,158.3487 C82.214,147.081 128.3618,127.7376 161.4139,113.8834 " fill="none" id="Admin-&gt;4. Performance" style="stroke: #A80036; stroke-width: 1.0;"/><polygon fill="#A80036" points="166.1916,111.8808,156.345,111.6708,161.5803,113.8136,159.4375,119.0489,166.1916,111.8808" style="stroke: #A80036; stroke-width: 1.0;"/><!--MD5=[3c90b86668a58fc59878fa072e04f572]
link Admin to 5. Cource Register--><path d="M55.3323,167.5 C71.0318,167.5 93.3027,167.5 115.6984,167.5 " fill="none" id="Admin-&gt;5. Cource Register" style="stroke: #A80036; stroke-width: 1.0;"/><polygon fill="#A80036" points="120.7791,167.5,111.7791,163.5,115.7791,167.5,111.7791,171.5,120.7791,167.5" style="stroke: #A80036; stroke-width: 1.0;"/><!--MD5=[12c97805e90c6ef3992a3250e5e8bc73]
link Admin to 6. Insert Record--><path d="M53.4174,209.2487 C75.9403,255.8655 110.809,326.0559 121,335.5 C129.5744,343.4459 140.2888,349.7039 151.0479,354.5654 " fill="none" id="Admin-&gt;6. Insert Record" style="stroke: #A80036; stroke-width: 1.0;"/><polygon fill="#A80036" points="155.6555,356.5643,148.991,349.3128,151.0686,354.5743,145.807,356.6519,155.6555,356.5643" style="stroke: #A80036; stroke-width: 1.0;"/><!--MD5=[e4a3e78ac2399513d7ae519efac8aca8]
@startuml
left to right direction

actor Student

Student - -> (1. Login)
Student - -> (2. FeedBack)
Student - -> (3. Student Info)
Student - -> (4. Performance)
Student - -> (5. Cource Register)

actor Staff

Staff - -> (1. Login)
Staff - -> (3. Student Info)
Staff - -> (6. Insert Record)
Staff - -> (7. Own Info)

actor Director

Director - -> (1. Login)
Director - -> (2. FeedBack)
Director - -> (3. Student Info)
Director - -> (4. Performance)
Director - -> (5. Cource Register)
Director - -> (7. Own Info)



actor Admin 

Admin - -> (1. Login)
Admin - -> (2. FeedBack)
Admin - -> (3. Student Info)
Admin - -> (4. Performance)
Admin - -> (5. Cource Register)
Admin - -> (6. Insert Record)
@enduml

PlantUML version 1.2019.10(Fri Sep 13 20:53:03 UTC 2019)
(GPL source distribution)
Java Runtime: OpenJDK Runtime Environment
JVM: OpenJDK 64-Bit Server VM
Java Version: 1.8.0_222-heroku-b10
Operating System: Linux
Default Encoding: UTF-8
Language: en
Country: US
--></g></svg>