<?xml version="1.0" encoding="UTF-8" standalone="no"?><svg xmlns="http://www.w3.org/2000/svg" xmlns:xlink="http://www.w3.org/1999/xlink" contentScriptType="application/ecmascript" contentStyleType="text/css" height="198px" preserveAspectRatio="none" style="width:1126px;height:198px;" version="1.1" viewBox="0 0 1126 198" width="1126px" zoomAndPan="magnify"><defs><filter height="300%" id="fzp52udyss32e" width="300%" x="-1" y="-1"><feGaussianBlur result="blurOut" stdDeviation="2.0"/><feColorMatrix in="blurOut" result="blurOut2" type="matrix" values="0 0 0 0 0 0 0 0 0 0 0 0 0 0 0 0 0 0 .4 0"/><feOffset dx="4.0" dy="4.0" in="blurOut2" result="blurOut3"/><feBlend in="SourceGraphic" in2="blurOut3" mode="normal"/></filter></defs><g><!--MD5=[494c489cc4328319247ec2e1625e02a3]
entity Student--><ellipse cx="401" cy="18" fill="#FEFECE" filter="url(#fzp52udyss32e)" rx="8" ry="8" style="stroke: #A80036; stroke-width: 2.0;"/><path d="M401,26 L401,53 M388,34 L414,34 M401,53 L388,68 M401,53 L414,68 " fill="none" filter="url(#fzp52udyss32e)" style="stroke: #A80036; stroke-width: 2.0;"/><text fill="#000000" font-family="sans-serif" font-size="14" lengthAdjust="spacingAndGlyphs" textLength="55" x="373.5" y="87.9951">Student</text><ellipse cx="575.1838" cy="169.5236" fill="#FEFECE" filter="url(#fzp52udyss32e)" rx="41.1838" ry="14.5236" style="stroke: #A80036; stroke-width: 1.5;"/><text fill="#000000" font-family="sans-serif" font-size="14" lengthAdjust="spacingAndGlyphs" textLength="54" x="548.1838" y="174.1721">1. Login</text><ellipse cx="68.2362" cy="169.3472" fill="#FEFECE" filter="url(#fzp52udyss32e)" rx="62.2362" ry="14.8472" style="stroke: #A80036; stroke-width: 1.5;"/><text fill="#000000" font-family="sans-serif" font-size="14" lengthAdjust="spacingAndGlyphs" textLength="86" x="25.2362" y="173.9957">2. FeedBack</text><ellipse cx="718.8859" cy="169.4772" fill="#FEFECE" filter="url(#fzp52udyss32e)" rx="67.8859" ry="15.9772" style="stroke: #A80036; stroke-width: 1.5;"/><text fill="#000000" font-family="sans-serif" font-size="14" lengthAdjust="spacingAndGlyphs" textLength="101" x="668.3859" y="174.1256">3. Student Info</text><ellipse cx="234.9543" cy="169.2909" fill="#FEFECE" filter="url(#fzp52udyss32e)" rx="69.4543" ry="16.2909" style="stroke: #A80036; stroke-width: 1.5;"/><text fill="#000000" font-family="sans-serif" font-size="14" lengthAdjust="spacingAndGlyphs" textLength="105" x="182.4543" y="173.9393">4. Performance</text><ellipse cx="418.7901" cy="169.258" fill="#FEFECE" filter="url(#fzp52udyss32e)" rx="79.2901" ry="18.258" style="stroke: #A80036; stroke-width: 1.5;"/><text fill="#000000" font-family="sans-serif" font-size="14" lengthAdjust="spacingAndGlyphs" textLength="129" x="354.2901" y="173.9065">5. Cource Register</text><!--MD5=[75bcab72e22e3bde62d8cef4f1a817de]
entity Staff--><ellipse cx="799" cy="18" fill="#FEFECE" filter="url(#fzp52udyss32e)" rx="8" ry="8" style="stroke: #A80036; stroke-width: 2.0;"/><path d="M799,26 L799,53 M786,34 L812,34 M799,53 L786,68 M799,53 L812,68 " fill="none" filter="url(#fzp52udyss32e)" style="stroke: #A80036; stroke-width: 2.0;"/><text fill="#000000" font-family="sans-serif" font-size="14" lengthAdjust="spacingAndGlyphs" textLength="30" x="784" y="87.9951">Staff</text><ellipse cx="1043.9465" cy="169.6893" fill="#FEFECE" filter="url(#fzp52udyss32e)" rx="71.4465" ry="16.6893" style="stroke: #A80036; stroke-width: 1.5;"/><text fill="#000000" font-family="sans-serif" font-size="14" lengthAdjust="spacingAndGlyphs" textLength="110" x="988.9465" y="174.3377">6. Insert Record</text><ellipse cx="879.9472" cy="169.5236" fill="#FEFECE" filter="url(#fzp52udyss32e)" rx="57.4472" ry="14.5236" style="stroke: #A80036; stroke-width: 1.5;"/><text fill="#000000" font-family="sans-serif" font-size="14" lengthAdjust="spacingAndGlyphs" textLength="77" x="841.4472" y="174.1721">7. Own Info</text><!--MD5=[3a4e06195bfd3e65563855131230b9db]
entity Director--><ellipse cx="491" cy="18" fill="#FEFECE" filter="url(#fzp52udyss32e)" rx="8" ry="8" style="stroke: #A80036; stroke-width: 2.0;"/><path d="M491,26 L491,53 M478,34 L504,34 M491,53 L478,68 M491,53 L504,68 " fill="none" filter="url(#fzp52udyss32e)" style="stroke: #A80036; stroke-width: 2.0;"/><text fill="#000000" font-family="sans-serif" font-size="14" lengthAdjust="spacingAndGlyphs" textLength="55" x="463.5" y="87.9951">Director</text><!--MD5=[97ab183161fd5d1db7fba7485cf76add]
entity Admin--><ellipse cx="575" cy="18" fill="#FEFECE" filter="url(#fzp52udyss32e)" rx="8" ry="8" style="stroke: #A80036; stroke-width: 2.0;"/><path d="M575,26 L575,53 M562,34 L588,34 M575,53 L562,68 M575,53 L588,68 " fill="none" filter="url(#fzp52udyss32e)" style="stroke: #A80036; stroke-width: 2.0;"/><text fill="#000000" font-family="sans-serif" font-size="14" lengthAdjust="spacingAndGlyphs" textLength="43" x="553.5" y="87.9951">Admin</text><!--MD5=[b392305a7b09802d183f1d1f71ac88fa]
link Student to 1. Login--><path d="M428.824,76.7343 C434.3483,81.6837 440.2286,86.6506 446,91 C479.0524,115.9089 520.3962,139.9487 547.2361,154.719 " fill="none" id="Student-&gt;1. Login" style="stroke: #A80036; stroke-width: 1.0;"/><polygon fill="#A80036" points="551.7443,157.1877,545.7716,149.3565,547.3588,154.7862,541.9292,156.3733,551.7443,157.1877" style="stroke: #A80036; stroke-width: 1.0;"/><!--MD5=[60d0b1da418c1b8be6cfef7921b3bc18]
link Student to 2. FeedBack--><path d="M373.4659,59.4222 C314.4988,80.6716 175.8312,130.6419 107.4876,155.2702 " fill="none" id="Student-&gt;2. FeedBack" style="stroke: #A80036; stroke-width: 1.0;"/><polygon fill="#A80036" points="102.6905,156.9989,112.5136,157.7107,107.3944,155.3037,109.8014,150.1845,102.6905,156.9989" style="stroke: #A80036; stroke-width: 1.0;"/><!--MD5=[04d373a77e93c45cd82a690aea72c4a0]
link Student to 3. Student Info--><path d="M428.9655,78.8877 C434.2957,83.4036 440.0721,87.6649 446,91 C483.4911,112.093 596.6642,140.8927 664.9594,157.0999 " fill="none" id="Student-&gt;3. Student Info" style="stroke: #A80036; stroke-width: 1.0;"/><polygon fill="#A80036" points="670.2036,158.3406,662.3664,152.3758,665.3379,157.1893,660.5244,160.1608,670.2036,158.3406" style="stroke: #A80036; stroke-width: 1.0;"/><!--MD5=[d7a761f8729caccb1c3463386cf4148c]
link Student to 4. Performance--><path d="M373.2153,69.5853 C341.9857,92.1609 291.6695,128.5341 261.1328,150.6088 " fill="none" id="Student-&gt;4. Performance" style="stroke: #A80036; stroke-width: 1.0;"/><polygon fill="#A80036" points="256.7756,153.7586,266.4128,151.7276,260.8277,150.8293,261.726,145.2443,256.7756,153.7586" style="stroke: #A80036; stroke-width: 1.0;"/><!--MD5=[1100fa4fb5025e711d7fde7a381c741c]
link Student to 5. Cource Register--><path d="M407.245,91.1334 C409.9818,109.3788 413.0948,130.1319 415.4294,145.6961 " fill="none" id="Student-&gt;5. Cource Register" style="stroke: #A80036; stroke-width: 1.0;"/><polygon fill="#A80036" points="416.1897,150.7644,418.8101,141.2705,415.4479,145.8197,410.8986,142.4575,416.1897,150.7644" style="stroke: #A80036; stroke-width: 1.0;"/><!--MD5=[7f30505138db0597b2abd10850b45ef8]
link Staff to 1. Login--><path d="M783.9549,57.5599 C746.7041,77.5157 649.7613,129.4493 602.1658,154.9469 " fill="none" id="Staff-&gt;1. Login" style="stroke: #A80036; stroke-width: 1.0;"/><polygon fill="#A80036" points="597.7175,157.3299,607.5397,156.6058,602.1249,154.9688,603.7619,149.554,597.7175,157.3299" style="stroke: #A80036; stroke-width: 1.0;"/><!--MD5=[302a3ee92f00e9b818bf5779860e8507]
link Staff to 3. Student Info--><path d="M783.9526,72.0711 C769.163,94.2556 746.7957,127.8064 732.5467,149.1799 " fill="none" id="Staff-&gt;3. Student Info" style="stroke: #A80036; stroke-width: 1.0;"/><polygon fill="#A80036" points="729.635,153.5475,737.9556,148.278,732.4086,149.3873,731.2993,143.8403,729.635,153.5475" style="stroke: #A80036; stroke-width: 1.0;"/><!--MD5=[e6d4c4b887c93791a7d8682d72d4ba39]
link Staff to 6. Insert Record--><path d="M814.3258,57.0065 C852.7645,75.8336 954.0672,125.4513 1008.389,152.0579 " fill="none" id="Staff-&gt;6. Insert Record" style="stroke: #A80036; stroke-width: 1.0;"/><polygon fill="#A80036" points="1013.1761,154.4026,1006.853,146.8516,1008.6858,152.2033,1003.3341,154.0361,1013.1761,154.4026" style="stroke: #A80036; stroke-width: 1.0;"/><!--MD5=[0602e0a7e0735036095d811421bf146e]
link Staff to 7. Own Info--><path d="M814.0456,71.7898 C829.3369,94.4436 852.7694,129.1584 867.1982,150.5343 " fill="none" id="Staff-&gt;7. Own Info" style="stroke: #A80036; stroke-width: 1.0;"/><polygon fill="#A80036" points="870.1343,154.8841,868.4142,145.1866,867.3368,150.7399,861.7835,149.6625,870.1343,154.8841" style="stroke: #A80036; stroke-width: 1.0;"/><!--MD5=[3b5cc8292545f0d32122cd68623fbb9c]
link Director to 1. Login--><path d="M518.5047,88.7925 C533.1124,109.6606 550.3866,134.338 561.9534,150.862 " fill="none" id="Director-&gt;1. Login" style="stroke: #A80036; stroke-width: 1.0;"/><polygon fill="#A80036" points="565.0576,155.2965,563.1734,145.6296,562.1903,151.2003,556.6195,150.2172,565.0576,155.2965" style="stroke: #A80036; stroke-width: 1.0;"/><!--MD5=[604554e6cc442708b0e0ef39e6b11514]
link Director to 2. FeedBack--><path d="M463.255,79.2989 C457.9003,83.7691 452.0585,87.9086 446,91 C325.6587,152.4053 280.05,122.4442 148,151 C138.0616,153.1492 127.4508,155.5369 117.3139,157.8634 " fill="none" id="Director-&gt;2. FeedBack" style="stroke: #A80036; stroke-width: 1.0;"/><polygon fill="#A80036" points="112.3806,158.9993,122.0486,160.8779,117.2531,157.8774,120.2536,153.0819,112.3806,158.9993" style="stroke: #A80036; stroke-width: 1.0;"/><!--MD5=[4cbb0e05c19498134118d5679d40b759]
link Director to 3. Student Info--><path d="M518.8425,77.8426 C524.2721,82.5786 530.1141,87.1849 536,91 C579.5881,119.2526 635.0509,141.3828 673.4336,154.8448 " fill="none" id="Director-&gt;3. Student Info" style="stroke: #A80036; stroke-width: 1.0;"/><polygon fill="#A80036" points="678.4977,156.6054,671.3104,149.8717,673.775,154.9634,668.6833,157.428,678.4977,156.6054" style="stroke: #A80036; stroke-width: 1.0;"/><!--MD5=[57e10a5d5bf64ba95ed4759daf47e141]
link Director to 4. Performance--><path d="M463.3091,78.083 C457.8642,82.7945 451.9777,87.3304 446,91 C396.1261,121.6167 332.4127,143.2729 288.1099,155.9767 " fill="none" id="Director-&gt;4. Performance" style="stroke: #A80036; stroke-width: 1.0;"/><polygon fill="#A80036" points="283.076,157.4056,292.8262,158.7958,287.886,156.0402,290.6416,151.0999,283.076,157.4056" style="stroke: #A80036; stroke-width: 1.0;"/><!--MD5=[4d89bdf9591140f619460fbb0d19a918]
link Director to 5. Cource Register--><path d="M466.02,91.1334 C454.9039,109.6602 442.2365,130.7725 432.8525,146.4124 " fill="none" id="Director-&gt;5. Cource Register" style="stroke: #A80036; stroke-width: 1.0;"/><polygon fill="#A80036" points="430.0511,151.0816,438.1116,145.4223,432.6237,146.7942,431.2518,141.3062,430.0511,151.0816" style="stroke: #A80036; stroke-width: 1.0;"/><!--MD5=[12305d37d201f368674136dbecd31a0d]
link Director to 7. Own Info--><path d="M518.7997,79.193 C524.1484,83.675 529.9739,87.8458 536,91 C644.526,147.8046 685.7504,122.997 805,151 C814.4503,153.2192 824.5524,155.6624 834.1822,158.0256 " fill="none" id="Director-&gt;7. Own Info" style="stroke: #A80036; stroke-width: 1.0;"/><polygon fill="#A80036" points="839.169,159.2525,831.3853,153.2181,834.3138,158.0579,829.474,160.9864,839.169,159.2525" style="stroke: #A80036; stroke-width: 1.0;"/><!--MD5=[6f28a9e9230616ef7f0734e8be7ce40e]
link Admin to 1. Login--><path d="M575,91.1334 C575,110.9601 575,133.7479 575,149.6209 " fill="none" id="Admin-&gt;1. Login" style="stroke: #A80036; stroke-width: 1.0;"/><polygon fill="#A80036" points="575,154.7246,579,145.7246,575,149.7246,571,145.7246,575,154.7246" style="stroke: #A80036; stroke-width: 1.0;"/><!--MD5=[5a6eee87e2572af9309d44036ed1e7a7]
link Admin to 2. FeedBack--><path d="M553.2802,77.8555 C548.1383,82.9471 542.2979,87.6816 536,91 C381.6241,172.3404 319.3428,117.987 148,151 C137.8952,152.9469 127.1281,155.2668 116.8755,157.5946 " fill="none" id="Admin-&gt;2. FeedBack" style="stroke: #A80036; stroke-width: 1.0;"/><polygon fill="#A80036" points="111.889,158.7364,121.5548,160.6264,116.7628,157.6203,119.769,152.8283,111.889,158.7364" style="stroke: #A80036; stroke-width: 1.0;"/><!--MD5=[64a4a7c5bb21fe07f36543ab1a9d53e1]
link Admin to 3. Student Info--><path d="M596.5583,67.4652 C623.4796,89.8997 669.3088,128.0906 696.612,150.8433 " fill="none" id="Admin-&gt;3. Student Info" style="stroke: #A80036; stroke-width: 1.0;"/><polygon fill="#A80036" points="700.5014,154.0845,696.1482,145.2499,696.6603,150.8835,691.0267,151.3957,700.5014,154.0845" style="stroke: #A80036; stroke-width: 1.0;"/><!--MD5=[2734289b0bde5c3a9f134fd226662ee5]
link Admin to 4. Performance--><path d="M553.4315,76.9383 C548.204,82.2215 542.2912,87.2649 536,91 C514.8706,103.5447 371.6436,137.9301 290.6102,156.7601 " fill="none" id="Admin-&gt;4. Performance" style="stroke: #A80036; stroke-width: 1.0;"/><polygon fill="#A80036" points="285.3646,157.9775,295.0359,159.8392,290.2351,156.8471,293.2272,152.0463,285.3646,157.9775" style="stroke: #A80036; stroke-width: 1.0;"/><!--MD5=[3c90b86668a58fc59878fa072e04f572]
link Admin to 5. Cource Register--><path d="M553.1836,74.5525 C547.7974,80.2082 541.88,86.0101 536,91 C509.8394,113.2008 477.2207,134.6404 453.0751,149.4877 " fill="none" id="Admin-&gt;5. Cource Register" style="stroke: #A80036; stroke-width: 1.0;"/><polygon fill="#A80036" points="448.6687,152.182,458.4337,150.8998,452.9345,149.5738,454.2605,144.0745,448.6687,152.182" style="stroke: #A80036; stroke-width: 1.0;"/><!--MD5=[12c97805e90c6ef3992a3250e5e8bc73]
link Admin to 6. Insert Record--><path d="M596.6802,55.0472 C666.6591,72.9522 887.9281,129.5669 990.6476,155.8491 " fill="none" id="Admin-&gt;6. Insert Record" style="stroke: #A80036; stroke-width: 1.0;"/><polygon fill="#A80036" points="995.7472,157.1539,988.0198,151.0476,990.9033,155.9144,986.0365,158.7978,995.7472,157.1539" style="stroke: #A80036; stroke-width: 1.0;"/><!--MD5=[c116bab079326b17a445b9e4c5b5be95]
@startuml
actor Student

Student - -> (1. Login)
Student - -> (2. FeedBack)
Student - -> (3. Student Info)
Student - -> (4. Performance)
Student - -> (5. Cource Register)

actor Staff

Staff - -> (1. Login)
Staff - -> (3. Student Info)
Staff - -> (6. Insert Record)
Staff - -> (7. Own Info)

actor Director

Director - -> (1. Login)
Director - -> (2. FeedBack)
Director - -> (3. Student Info)
Director - -> (4. Performance)
Director - -> (5. Cource Register)
Director - -> (7. Own Info)



actor Admin 

Admin - -> (1. Login)
Admin - -> (2. FeedBack)
Admin - -> (3. Student Info)
Admin - -> (4. Performance)
Admin - -> (5. Cource Register)
Admin - -> (6. Insert Record)
@enduml

PlantUML version 1.2019.10(Fri Sep 13 20:53:03 UTC 2019)
(GPL source distribution)
Java Runtime: OpenJDK Runtime Environment
JVM: OpenJDK 64-Bit Server VM
Java Version: 1.8.0_222-heroku-b10
Operating System: Linux
Default Encoding: UTF-8
Language: en
Country: US
--></g></svg>